<svg width="1922" height="1144" viewBox="0 0 1922 1144" fill="none" xmlns="http://www.w3.org/2000/svg">
<path d="M303.55 156.97C302.303 157.357 301.007 158 299.66 158.9C299.52 158.996 299.348 159.034 299.18 159.006C299.012 158.978 298.862 158.886 298.76 158.75L295.86 154.9C295.816 154.842 295.784 154.776 295.766 154.705C295.748 154.635 295.745 154.561 295.756 154.489C295.767 154.418 295.793 154.349 295.831 154.287C295.87 154.225 295.92 154.172 295.98 154.13C297.813 152.83 299.747 151.867 301.78 151.24C303.813 150.613 305.957 150.32 308.21 150.36C308.283 150.361 308.354 150.377 308.421 150.407C308.487 150.436 308.547 150.479 308.596 150.532C308.646 150.585 308.684 150.648 308.709 150.716C308.733 150.785 308.744 150.857 308.74 150.93L308.51 155.75C308.5 155.918 308.426 156.076 308.303 156.191C308.18 156.306 308.018 156.37 307.85 156.37C306.23 156.39 304.797 156.59 303.55 156.97Z" fill="white"/>
<path d="M330.58 162.34C330.663 162.416 330.731 162.507 330.779 162.609C330.827 162.711 330.854 162.822 330.858 162.935C330.863 163.047 330.845 163.16 330.806 163.265C330.767 163.371 330.707 163.468 330.63 163.55L329.68 164.56C329.343 164.923 328.988 165.262 328.635 165.558C328.281 165.854 327.937 166.101 327.621 166.285C327.305 166.469 327.024 166.586 326.794 166.63C326.564 166.674 326.389 166.643 326.28 166.54L318.87 159.65C318.652 159.442 318.711 158.953 319.035 158.292C319.36 157.63 319.922 156.849 320.6 156.12L321.54 155.1C321.694 154.936 321.907 154.839 322.132 154.832C322.357 154.824 322.575 154.906 322.74 155.06L330.58 162.34Z" fill="white"/>
<path d="M287.19 173.08C287.083 170.96 287.327 168.813 287.92 166.64C287.94 166.57 287.973 166.506 288.018 166.449C288.063 166.393 288.119 166.346 288.182 166.311C288.245 166.277 288.315 166.255 288.387 166.248C288.459 166.241 288.531 166.249 288.6 166.27L293.21 167.68C293.372 167.729 293.509 167.838 293.593 167.985C293.676 168.132 293.701 168.306 293.66 168.47C293.273 170.043 293.113 171.48 293.18 172.78C293.247 174.08 293.55 175.497 294.09 177.03C294.146 177.189 294.139 177.364 294.071 177.519C294.002 177.673 293.876 177.795 293.72 177.86L289.28 179.72C289.213 179.749 289.141 179.765 289.068 179.765C288.996 179.766 288.923 179.752 288.856 179.724C288.789 179.696 288.728 179.654 288.677 179.602C288.626 179.55 288.586 179.488 288.56 179.42C287.753 177.32 287.297 175.207 287.19 173.08Z" fill="white"/>
<path d="M340.9 186C340.948 186.22 340.906 186.45 340.784 186.639C340.662 186.829 340.47 186.962 340.25 187.01L338.99 187.29C338.491 187.4 337.989 187.475 337.513 187.511C337.038 187.547 336.598 187.543 336.219 187.499C335.84 187.455 335.529 187.373 335.304 187.256C335.08 187.14 334.946 186.992 334.91 186.82L332.81 177.25C332.735 176.906 333.062 176.488 333.718 176.089C334.374 175.689 335.306 175.341 336.31 175.12L337.57 174.84C337.79 174.792 338.02 174.834 338.209 174.956C338.399 175.078 338.532 175.27 338.58 175.49L340.9 186Z" fill="white"/>
<path d="M397.6 185.52L379.53 207.38C379.496 207.422 379.451 207.455 379.4 207.475C379.35 207.496 379.295 207.503 379.24 207.496C379.186 207.489 379.135 207.468 379.091 207.435C379.047 207.403 379.012 207.36 378.99 207.31L375.2 198.76C375.169 198.691 375.115 198.636 375.048 198.603C374.98 198.57 374.903 198.562 374.83 198.58L369.63 199.9C369.589 199.911 369.547 199.913 369.505 199.907C369.464 199.901 369.424 199.887 369.387 199.866C369.351 199.844 369.319 199.816 369.294 199.783C369.269 199.749 369.25 199.711 369.24 199.67L367.92 194.5C367.909 194.459 367.907 194.417 367.913 194.375C367.919 194.334 367.933 194.294 367.954 194.257C367.976 194.221 368.004 194.189 368.037 194.164C368.071 194.139 368.109 194.121 368.15 194.11L372.28 193.05C372.326 193.039 372.368 193.019 372.405 192.99C372.442 192.96 372.472 192.924 372.493 192.882C372.514 192.84 372.526 192.793 372.527 192.747C372.528 192.7 372.519 192.653 372.5 192.61L368.73 184.11C368.708 184.06 368.698 184.005 368.704 183.95C368.709 183.896 368.728 183.843 368.759 183.798C368.79 183.753 368.832 183.716 368.881 183.692C368.931 183.668 368.985 183.657 369.04 183.66L397.37 185C397.429 185.004 397.485 185.023 397.533 185.057C397.582 185.09 397.62 185.136 397.643 185.19C397.667 185.244 397.676 185.303 397.668 185.361C397.66 185.419 397.637 185.474 397.6 185.52Z" fill="white"/>
<path d="M310.173 191.373L301.037 186.077C300.654 185.855 300.165 185.985 299.943 186.367L297.737 190.174C297.515 190.556 297.645 191.046 298.027 191.267L307.163 196.563C307.546 196.785 308.035 196.655 308.257 196.273L310.463 192.466C310.685 192.084 310.555 191.594 310.173 191.373Z" fill="white"/>
<path d="M321.85 195.01L332.67 196.75C332.783 196.77 332.884 196.832 332.952 196.924C333.019 197.016 333.047 197.129 333.03 197.24C332.963 197.8 333.22 198.17 333.8 198.35C335.733 198.95 337.187 199.44 338.16 199.82C338.309 199.878 338.429 199.993 338.495 200.138C338.56 200.284 338.566 200.45 338.51 200.6C337.177 204.213 335.337 207.637 332.99 210.87C332.945 210.933 332.877 210.977 332.799 210.994C332.722 211.01 332.641 210.998 332.57 210.96L328.27 208.48C328.148 208.408 328.06 208.29 328.024 208.152C327.989 208.013 328.009 207.865 328.08 207.74L330.79 203.05C330.82 202.995 330.837 202.934 330.839 202.871C330.841 202.809 330.828 202.747 330.802 202.691C330.775 202.635 330.736 202.587 330.687 202.55C330.638 202.513 330.58 202.489 330.52 202.48L320.79 200.92C320.752 200.914 320.715 200.9 320.682 200.88C320.65 200.86 320.621 200.834 320.599 200.803C320.576 200.772 320.561 200.738 320.552 200.701C320.544 200.664 320.543 200.627 320.55 200.59L321.39 195.34C321.41 195.235 321.469 195.141 321.555 195.08C321.641 195.018 321.747 194.993 321.85 195.01Z" fill="white"/>
<path d="M356.129 196.416L344.901 197.261C344.692 197.276 344.535 197.459 344.55 197.668L344.943 202.893C344.959 203.103 345.141 203.259 345.351 203.244L356.579 202.399C356.788 202.384 356.945 202.201 356.93 201.992L356.537 196.767C356.521 196.557 356.338 196.401 356.129 196.416Z" fill="white"/>
<path d="M276.03 234.68L266.79 233.2C266.66 233.178 266.527 233.189 266.401 233.231C266.276 233.273 266.162 233.344 266.07 233.44C262.837 236.78 259.203 237.983 255.17 237.05C245.76 234.87 243.74 222.81 251.37 217.37C259.04 211.91 268.46 217.87 268.65 226.81C268.653 226.986 268.719 227.156 268.836 227.29C268.953 227.423 269.114 227.512 269.29 227.54L276.67 228.73C276.739 228.742 276.802 228.778 276.846 228.832C276.89 228.885 276.913 228.952 276.91 229.02L276.67 234.16C276.667 234.238 276.647 234.314 276.612 234.384C276.577 234.454 276.528 234.515 276.467 234.564C276.407 234.614 276.336 234.649 276.261 234.669C276.186 234.689 276.107 234.693 276.03 234.68Z" fill="white"/>
<path d="M319.892 216.224L310.711 222.21C310.452 222.378 310.379 222.725 310.548 222.984L313.213 227.073C313.382 227.332 313.729 227.405 313.988 227.236L323.169 221.251C323.428 221.082 323.501 220.735 323.332 220.476L320.667 216.388C320.498 216.128 320.151 216.055 319.892 216.224Z" fill="white"/>
<path d="M299.641 226.571L288.788 228.701C288.511 228.755 288.331 229.023 288.386 229.299L289.34 234.166C289.395 234.443 289.663 234.623 289.939 234.569L300.792 232.439C301.069 232.385 301.249 232.117 301.194 231.841L300.24 226.974C300.185 226.697 299.917 226.517 299.641 226.571Z" fill="white"/>
<path d="M412.176 168V145.6H417.68V168H412.176ZM429.668 168.32C428.068 168.32 426.617 167.947 425.316 167.2C424.036 166.432 423.012 165.408 422.244 164.128C421.497 162.827 421.124 161.376 421.124 159.776C421.124 158.155 421.497 156.704 422.244 155.424C423.012 154.144 424.036 153.131 425.316 152.384C426.617 151.616 428.068 151.232 429.668 151.232C431.033 151.232 432.313 151.499 433.508 152.032C434.702 152.544 435.716 153.291 436.548 154.272L433.38 157.44C432.846 156.821 432.302 156.373 431.748 156.096C431.193 155.797 430.564 155.648 429.86 155.648C429.177 155.648 428.558 155.829 428.004 156.192C427.47 156.555 427.044 157.045 426.724 157.664C426.425 158.283 426.276 158.987 426.276 159.776C426.276 160.565 426.425 161.269 426.724 161.888C427.044 162.507 427.47 162.997 428.004 163.36C428.558 163.723 429.177 163.904 429.86 163.904C430.564 163.904 431.193 163.765 431.748 163.488C432.302 163.189 432.846 162.731 433.38 162.112L436.548 165.28C435.716 166.261 434.702 167.019 433.508 167.552C432.313 168.064 431.033 168.32 429.668 168.32ZM446.545 168.32C444.902 168.32 443.43 167.947 442.129 167.2C440.828 166.453 439.793 165.44 439.025 164.16C438.278 162.859 437.905 161.397 437.905 159.776C437.905 158.155 438.278 156.704 439.025 155.424C439.793 154.123 440.828 153.099 442.129 152.352C443.43 151.605 444.892 151.232 446.513 151.232C448.156 151.232 449.617 151.605 450.897 152.352C452.198 153.099 453.222 154.123 453.969 155.424C454.737 156.704 455.121 158.155 455.121 159.776C455.121 161.397 454.737 162.859 453.969 164.16C453.222 165.44 452.198 166.453 450.897 167.2C449.617 167.947 448.166 168.32 446.545 168.32ZM446.513 164C447.217 164 447.836 163.819 448.369 163.456C448.902 163.093 449.318 162.592 449.617 161.952C449.916 161.312 450.065 160.587 450.065 159.776C450.065 158.944 449.916 158.219 449.617 157.6C449.318 156.96 448.902 156.459 448.369 156.096C447.836 155.733 447.217 155.552 446.513 155.552C445.83 155.552 445.212 155.733 444.657 156.096C444.124 156.459 443.708 156.96 443.409 157.6C443.11 158.219 442.961 158.944 442.961 159.776C442.961 160.587 443.11 161.312 443.409 161.952C443.708 162.592 444.124 163.093 444.657 163.456C445.212 163.819 445.83 164 446.513 164ZM464.662 168.32C463.169 168.32 461.772 168.149 460.47 167.808C459.169 167.467 458.038 166.965 457.078 166.304L459.35 162.848C460.545 163.467 461.526 163.904 462.294 164.16C463.084 164.395 463.873 164.512 464.662 164.512C465.409 164.512 465.985 164.395 466.39 164.16C466.817 163.904 467.03 163.573 467.03 163.168C467.03 162.848 466.902 162.592 466.646 162.4C466.412 162.208 466.028 162.069 465.494 161.984L462.326 161.408C460.726 161.109 459.51 160.555 458.678 159.744C457.868 158.933 457.462 157.888 457.462 156.608C457.462 155.477 457.74 154.517 458.294 153.728C458.849 152.917 459.638 152.299 460.662 151.872C461.708 151.445 462.945 151.232 464.374 151.232C465.526 151.232 466.668 151.392 467.798 151.712C468.929 152.032 470.028 152.501 471.094 153.12L468.726 156.416C467.894 155.925 467.084 155.573 466.294 155.36C465.526 155.125 464.758 155.008 463.99 155.008C463.372 155.008 462.881 155.104 462.518 155.296C462.177 155.488 462.006 155.765 462.006 156.128C462.006 156.469 462.124 156.725 462.358 156.896C462.614 157.067 463.062 157.205 463.702 157.312L466.806 157.888C468.449 158.187 469.686 158.741 470.518 159.552C471.35 160.363 471.766 161.397 471.766 162.656C471.766 163.723 471.457 164.693 470.838 165.568C470.22 166.421 469.377 167.093 468.31 167.584C467.244 168.075 466.028 168.32 464.662 168.32ZM474.766 168V151.488H479.95V168H474.766ZM477.358 148.96C476.569 148.96 475.886 148.672 475.31 148.096C474.734 147.52 474.446 146.837 474.446 146.048C474.446 145.237 474.734 144.555 475.31 144C475.886 143.424 476.569 143.136 477.358 143.136C478.169 143.136 478.851 143.424 479.406 144C479.982 144.555 480.27 145.237 480.27 146.048C480.27 146.837 479.982 147.52 479.406 148.096C478.851 148.672 478.169 148.96 477.358 148.96ZM492.081 168.32C490.139 168.32 488.667 167.872 487.665 166.976C486.662 166.08 486.161 164.757 486.161 163.008V155.488H482.961V151.488H486.161V146.912L491.345 145.856V151.488H495.761V155.488H491.345V161.984C491.345 162.709 491.505 163.221 491.825 163.52C492.166 163.819 492.731 163.968 493.521 163.968C493.819 163.968 494.118 163.947 494.417 163.904C494.715 163.861 495.121 163.765 495.633 163.616V167.808C495.163 167.957 494.587 168.075 493.905 168.16C493.222 168.267 492.614 168.32 492.081 168.32ZM506.453 168.32C504.831 168.32 503.359 167.947 502.037 167.2C500.735 166.432 499.69 165.408 498.901 164.128C498.133 162.827 497.749 161.376 497.749 159.776C497.749 158.155 498.111 156.704 498.837 155.424C499.562 154.144 500.554 153.131 501.813 152.384C503.071 151.616 504.49 151.232 506.069 151.232C507.669 151.232 509.077 151.605 510.293 152.352C511.509 153.099 512.458 154.133 513.141 155.456C513.845 156.757 514.197 158.261 514.197 159.968V161.088H502.837C503.007 161.707 503.274 162.251 503.637 162.72C503.999 163.189 504.447 163.552 504.981 163.808C505.514 164.064 506.09 164.192 506.709 164.192C507.391 164.192 508.01 164.075 508.565 163.84C509.141 163.605 509.61 163.264 509.973 162.816L513.397 165.664C512.33 166.603 511.253 167.285 510.165 167.712C509.077 168.117 507.839 168.32 506.453 168.32ZM502.837 158.144H509.397C509.247 157.547 509.013 157.035 508.693 156.608C508.373 156.181 507.989 155.851 507.541 155.616C507.093 155.381 506.591 155.264 506.037 155.264C505.503 155.264 505.013 155.381 504.565 155.616C504.138 155.829 503.775 156.149 503.477 156.576C503.199 157.003 502.986 157.525 502.837 158.144ZM525.05 168.32C523.108 168.32 521.636 167.872 520.634 166.976C519.631 166.08 519.13 164.757 519.13 163.008V155.488H515.93V151.488H519.13V146.912L524.314 145.856V151.488H528.73V155.488H524.314V161.984C524.314 162.709 524.474 163.221 524.794 163.52C525.135 163.819 525.7 163.968 526.49 163.968C526.788 163.968 527.087 163.947 527.386 163.904C527.684 163.861 528.09 163.765 528.602 163.616V167.808C528.132 167.957 527.556 168.075 526.874 168.16C526.191 168.267 525.583 168.32 525.05 168.32ZM531.61 168V151.488H536.794V155.232C537.327 153.845 537.956 152.821 538.682 152.16C539.428 151.499 540.292 151.168 541.274 151.168C541.636 151.189 541.935 151.221 542.17 151.264C542.404 151.307 542.682 151.413 543.002 151.584V156.032C542.682 155.861 542.308 155.733 541.882 155.648C541.455 155.563 541.018 155.52 540.57 155.52C539.802 155.52 539.087 155.712 538.426 156.096C537.764 156.459 537.22 156.949 536.794 157.568V168H531.61ZM550.35 168.256C549.241 168.256 548.249 168.043 547.374 167.616C546.521 167.189 545.849 166.603 545.358 165.856C544.889 165.109 544.654 164.245 544.654 163.264C544.654 162.24 544.91 161.376 545.422 160.672C545.934 159.947 546.67 159.403 547.63 159.04C548.59 158.656 549.742 158.464 551.086 158.464C551.684 158.464 552.292 158.528 552.91 158.656C553.529 158.763 554.201 158.955 554.926 159.232V157.888C554.926 157.077 554.66 156.48 554.126 156.096C553.593 155.691 552.772 155.488 551.662 155.488C551.044 155.488 550.35 155.584 549.582 155.776C548.836 155.947 547.982 156.235 547.022 156.64L545.23 153.024C547.897 151.829 550.425 151.232 552.814 151.232C555.097 151.232 556.868 151.776 558.126 152.864C559.406 153.952 560.046 155.477 560.046 157.44V168H554.926V166.56C554.201 167.157 553.476 167.595 552.75 167.872C552.025 168.128 551.225 168.256 550.35 168.256ZM549.422 163.168C549.422 163.701 549.646 164.117 550.094 164.416C550.542 164.693 551.161 164.832 551.95 164.832C552.505 164.832 553.028 164.768 553.518 164.64C554.009 164.491 554.478 164.277 554.926 164V161.888C554.457 161.781 553.988 161.696 553.518 161.632C553.049 161.568 552.569 161.536 552.078 161.536C551.225 161.536 550.564 161.675 550.094 161.952C549.646 162.229 549.422 162.635 549.422 163.168ZM563.954 168V145.216L569.138 144.416V154.176C569.778 153.216 570.535 152.491 571.41 152C572.306 151.488 573.287 151.232 574.354 151.232C575.42 151.232 576.359 151.477 577.17 151.968C578.002 152.437 578.652 153.099 579.122 153.952C579.591 154.784 579.826 155.755 579.826 156.864V168H574.642V158.368C574.642 157.429 574.386 156.683 573.874 156.128C573.383 155.573 572.722 155.296 571.89 155.296C571.335 155.296 570.823 155.413 570.354 155.648C569.906 155.861 569.5 156.203 569.138 156.672V168H563.954ZM591.703 168.32C590.081 168.32 588.609 167.947 587.287 167.2C585.985 166.432 584.94 165.408 584.151 164.128C583.383 162.827 582.999 161.376 582.999 159.776C582.999 158.155 583.361 156.704 584.087 155.424C584.812 154.144 585.804 153.131 587.063 152.384C588.321 151.616 589.74 151.232 591.319 151.232C592.919 151.232 594.327 151.605 595.543 152.352C596.759 153.099 597.708 154.133 598.391 155.456C599.095 156.757 599.447 158.261 599.447 159.968V161.088H588.087C588.257 161.707 588.524 162.251 588.887 162.72C589.249 163.189 589.697 163.552 590.231 163.808C590.764 164.064 591.34 164.192 591.959 164.192C592.641 164.192 593.26 164.075 593.815 163.84C594.391 163.605 594.86 163.264 595.223 162.816L598.647 165.664C597.58 166.603 596.503 167.285 595.415 167.712C594.327 168.117 593.089 168.32 591.703 168.32ZM588.087 158.144H594.647C594.497 157.547 594.263 157.035 593.943 156.608C593.623 156.181 593.239 155.851 592.791 155.616C592.343 155.381 591.841 155.264 591.287 155.264C590.753 155.264 590.263 155.381 589.815 155.616C589.388 155.829 589.025 156.149 588.727 156.576C588.449 157.003 588.236 157.525 588.087 158.144ZM609.389 168.096C608.045 168.096 606.818 167.723 605.709 166.976C604.599 166.208 603.714 165.195 603.053 163.936C602.413 162.656 602.093 161.248 602.093 159.712C602.093 158.155 602.434 156.757 603.117 155.52C603.799 154.261 604.717 153.259 605.869 152.512C607.042 151.765 608.343 151.392 609.773 151.392C610.647 151.392 611.458 151.563 612.205 151.904C612.973 152.245 613.634 152.736 614.189 153.376V145.216L619.373 144.416V168H614.253V165.856C613.719 166.539 613.015 167.083 612.141 167.488C611.287 167.893 610.37 168.096 609.389 168.096ZM611.117 163.808C611.735 163.808 612.301 163.701 612.813 163.488C613.325 163.253 613.783 162.923 614.189 162.496V156.928C613.783 156.501 613.314 156.181 612.781 155.968C612.269 155.755 611.714 155.648 611.117 155.648C610.37 155.648 609.698 155.829 609.101 156.192C608.503 156.533 608.034 157.013 607.693 157.632C607.351 158.251 607.181 158.955 607.181 159.744C607.181 160.512 607.351 161.205 607.693 161.824C608.034 162.443 608.503 162.933 609.101 163.296C609.698 163.637 610.37 163.808 611.117 163.808ZM623.391 168V151.488H628.575V155.232C629.108 153.845 629.738 152.821 630.463 152.16C631.21 151.499 632.074 151.168 633.055 151.168C633.418 151.189 633.716 151.221 633.951 151.264C634.186 151.307 634.463 151.413 634.783 151.584V156.032C634.463 155.861 634.09 155.733 633.663 155.648C633.236 155.563 632.799 155.52 632.351 155.52C631.583 155.52 630.868 155.712 630.207 156.096C629.546 156.459 629.002 156.949 628.575 157.568V168H623.391ZM644.951 168.32C643.309 168.32 641.837 167.947 640.535 167.2C639.234 166.453 638.199 165.44 637.431 164.16C636.685 162.859 636.311 161.397 636.311 159.776C636.311 158.155 636.685 156.704 637.431 155.424C638.199 154.123 639.234 153.099 640.535 152.352C641.837 151.605 643.298 151.232 644.919 151.232C646.562 151.232 648.023 151.605 649.303 152.352C650.605 153.099 651.629 154.123 652.375 155.424C653.143 156.704 653.527 158.155 653.527 159.776C653.527 161.397 653.143 162.859 652.375 164.16C651.629 165.44 650.605 166.453 649.303 167.2C648.023 167.947 646.573 168.32 644.951 168.32ZM644.919 164C645.623 164 646.242 163.819 646.775 163.456C647.309 163.093 647.725 162.592 648.023 161.952C648.322 161.312 648.471 160.587 648.471 159.776C648.471 158.944 648.322 158.219 648.023 157.6C647.725 156.96 647.309 156.459 646.775 156.096C646.242 155.733 645.623 155.552 644.919 155.552C644.237 155.552 643.618 155.733 643.063 156.096C642.53 156.459 642.114 156.96 641.815 157.6C641.517 158.219 641.367 158.944 641.367 159.776C641.367 160.587 641.517 161.312 641.815 161.952C642.114 162.592 642.53 163.093 643.063 163.456C643.618 163.819 644.237 164 644.919 164ZM656.829 168V151.488H662.013V154.176C662.653 153.216 663.41 152.491 664.285 152C665.181 151.488 666.162 151.232 667.229 151.232C668.295 151.232 669.234 151.477 670.045 151.968C670.877 152.437 671.527 153.099 671.997 153.952C672.466 154.784 672.701 155.755 672.701 156.864V168H667.517V158.368C667.517 157.429 667.261 156.683 666.749 156.128C666.258 155.573 665.597 155.296 664.765 155.296C664.21 155.296 663.698 155.413 663.229 155.648C662.781 155.861 662.375 156.203 662.013 156.672V168H656.829Z" fill="white"/>
<path d="M452.99 863.91L460.57 858.56C460.644 858.511 460.705 858.444 460.746 858.365C460.788 858.287 460.81 858.199 460.81 858.11C460.937 851.283 463.967 847.223 469.9 845.93C478.1 844.15 485.22 852.65 482.11 860.46C479 868.28 469.63 870.1 463.83 864.1C463.749 864.016 463.641 863.963 463.523 863.952C463.406 863.941 463.288 863.972 463.19 864.04L456.74 868.59C456.699 868.618 456.649 868.63 456.599 868.625C456.55 868.619 456.504 868.596 456.47 868.56L452.91 864.72C452.857 864.664 452.817 864.597 452.792 864.524C452.767 864.451 452.758 864.374 452.766 864.297C452.773 864.22 452.797 864.146 452.836 864.079C452.875 864.012 452.927 863.955 452.99 863.91Z" fill="white"/>
<path d="M448.193 876.532L444.212 873.887C443.931 873.7 443.553 873.776 443.366 874.057L437.356 883.103C437.17 883.383 437.246 883.762 437.527 883.948L441.508 886.593C441.789 886.78 442.167 886.704 442.354 886.423L448.364 877.377C448.55 877.097 448.474 876.718 448.193 876.532Z" fill="white"/>
<path d="M437.112 896.772L432.585 895.851C432.211 895.775 431.847 896.016 431.771 896.39L429.63 906.914C429.554 907.287 429.795 907.652 430.168 907.728L434.695 908.649C435.069 908.725 435.433 908.484 435.509 908.11L437.65 897.586C437.726 897.212 437.485 896.848 437.112 896.772Z" fill="white"/>
<path d="M468.722 910.035L458.349 912.971C457.988 913.073 457.778 913.449 457.88 913.81L459.138 918.256C459.241 918.617 459.616 918.827 459.978 918.725L470.35 915.789C470.712 915.687 470.922 915.311 470.82 914.95L469.562 910.505C469.459 910.143 469.084 909.933 468.722 910.035Z" fill="white"/>
<path d="M489.2 915.09C490.7 916.423 492.06 918.057 493.28 919.99C493.321 920.057 493.349 920.132 493.36 920.21C493.372 920.288 493.368 920.368 493.348 920.444C493.329 920.521 493.294 920.593 493.246 920.655C493.198 920.718 493.139 920.771 493.07 920.81L488.84 923.26C488.769 923.301 488.69 923.327 488.608 923.337C488.527 923.347 488.444 923.34 488.365 923.318C488.286 923.296 488.212 923.258 488.148 923.207C488.083 923.155 488.03 923.092 487.99 923.02C487.317 921.773 486.393 920.627 485.22 919.58C484.04 918.533 482.79 917.75 481.47 917.23C481.393 917.199 481.323 917.154 481.264 917.095C481.206 917.037 481.159 916.968 481.127 916.892C481.095 916.815 481.079 916.733 481.08 916.651C481.08 916.568 481.097 916.486 481.13 916.41L483.07 911.92C483.101 911.848 483.147 911.782 483.204 911.728C483.261 911.674 483.328 911.631 483.402 911.603C483.475 911.575 483.554 911.562 483.633 911.565C483.711 911.568 483.789 911.587 483.86 911.62C485.92 912.607 487.7 913.763 489.2 915.09Z" fill="white"/>
<path d="M437.18 925.24C437.19 925.289 437.213 925.334 437.245 925.372C437.278 925.41 437.319 925.44 437.366 925.458C437.413 925.475 437.463 925.481 437.513 925.475C437.562 925.468 437.61 925.449 437.65 925.42L445.9 919.6C445.931 919.577 445.967 919.561 446.005 919.552C446.042 919.543 446.082 919.542 446.12 919.548C446.158 919.555 446.195 919.569 446.227 919.59C446.26 919.611 446.288 919.638 446.31 919.67L449.34 923.97C449.394 924.045 449.416 924.137 449.403 924.227C449.39 924.317 449.342 924.397 449.27 924.45L440.3 931.09C440.274 931.109 440.244 931.12 440.213 931.122C440.181 931.124 440.15 931.118 440.122 931.103C440.094 931.089 440.07 931.067 440.054 931.04C440.038 931.013 440.03 930.982 440.03 930.95C440.03 930.923 439.857 930.81 439.51 930.61C439.342 930.515 439.154 930.465 438.962 930.465C438.771 930.465 438.584 930.515 438.42 930.61L434.6 932.82C434.519 932.866 434.43 932.895 434.338 932.904C434.246 932.914 434.152 932.905 434.064 932.876C433.976 932.848 433.894 932.802 433.825 932.741C433.755 932.679 433.699 932.604 433.66 932.52C431.907 928.807 430.723 924.94 430.11 920.92C430.103 920.869 430.106 920.817 430.119 920.768C430.132 920.718 430.154 920.672 430.185 920.632C430.216 920.592 430.254 920.558 430.298 920.534C430.342 920.51 430.39 920.495 430.44 920.49L435.73 919.93C435.785 919.924 435.841 919.939 435.887 919.972C435.933 920.005 435.966 920.054 435.98 920.11L437.18 925.24Z" fill="white"/>
<path d="M489.26 938.01C489.987 936.61 490.44 935.21 490.62 933.81C490.631 933.729 490.658 933.651 490.699 933.581C490.74 933.511 490.795 933.449 490.86 933.4C490.925 933.351 490.999 933.315 491.078 933.294C491.157 933.273 491.239 933.269 491.32 933.28L496.15 934.05C496.229 934.062 496.305 934.09 496.373 934.132C496.441 934.174 496.499 934.23 496.545 934.295C496.591 934.36 496.623 934.435 496.639 934.513C496.656 934.591 496.656 934.672 496.64 934.75C496.193 936.983 495.507 938.99 494.58 940.77C493.66 942.55 492.413 944.27 490.84 945.93C490.785 945.987 490.719 946.033 490.646 946.064C490.573 946.095 490.494 946.111 490.415 946.111C490.336 946.111 490.257 946.095 490.184 946.064C490.111 946.033 490.045 945.987 489.99 945.93L486.58 942.43C486.523 942.371 486.479 942.301 486.449 942.225C486.419 942.149 486.405 942.068 486.407 941.986C486.409 941.904 486.427 941.823 486.46 941.749C486.493 941.674 486.541 941.606 486.6 941.55C487.647 940.59 488.533 939.41 489.26 938.01Z" fill="white"/>
<path d="M431.476 938.832L427.501 935.449C427.337 935.31 427.091 935.329 426.951 935.493L419.679 944.038C419.54 944.202 419.56 944.448 419.724 944.588L423.699 947.971C423.863 948.11 424.109 948.091 424.249 947.927L431.521 939.382C431.66 939.218 431.64 938.972 431.476 938.832Z" fill="white"/>
<path d="M442.48 944.45C442.374 944.384 442.283 944.297 442.21 944.195C442.138 944.094 442.086 943.979 442.059 943.857C442.031 943.735 442.027 943.61 442.048 943.486C442.069 943.363 442.114 943.246 442.18 943.14L442.89 942C443.148 941.587 443.432 941.195 443.726 940.848C444.02 940.501 444.317 940.204 444.601 939.976C444.885 939.747 445.151 939.591 445.382 939.517C445.614 939.442 445.807 939.45 445.95 939.54L454.29 944.75C454.434 944.839 454.526 945.009 454.56 945.25C454.595 945.491 454.571 945.798 454.49 946.154C454.409 946.509 454.273 946.907 454.089 947.323C453.906 947.739 453.678 948.166 453.42 948.58L452.71 949.72C452.644 949.826 452.557 949.917 452.456 949.99C452.354 950.062 452.239 950.114 452.117 950.141C451.996 950.169 451.87 950.173 451.746 950.152C451.623 950.131 451.506 950.086 451.4 950.02L442.48 944.45Z" fill="white"/>
<path d="M466.45 953.56C466.234 953.568 466.024 953.491 465.865 953.345C465.706 953.199 465.61 952.996 465.6 952.78L465.53 951.41C465.507 950.906 465.513 950.405 465.549 949.937C465.584 949.469 465.648 949.042 465.736 948.682C465.824 948.321 465.935 948.034 466.063 947.836C466.191 947.638 466.332 947.534 466.48 947.53L476.63 947.07C476.927 947.059 477.229 947.451 477.471 948.16C477.713 948.869 477.874 949.836 477.92 950.85L477.98 952.22C477.988 952.436 477.911 952.646 477.765 952.805C477.619 952.965 477.416 953.06 477.2 953.07L466.45 953.56Z" fill="white"/>
<path d="M409.63 959.79L412.31 955.15C412.331 955.113 412.359 955.08 412.392 955.054C412.426 955.028 412.464 955.009 412.505 954.998C412.546 954.987 412.589 954.984 412.631 954.989C412.673 954.995 412.713 955.009 412.75 955.03L417.37 957.7C417.407 957.721 417.44 957.749 417.466 957.782C417.492 957.816 417.511 957.854 417.522 957.895C417.533 957.936 417.536 957.979 417.531 958.021C417.525 958.063 417.511 958.103 417.49 958.14L415.36 961.82C415.337 961.86 415.322 961.904 415.318 961.951C415.313 961.997 415.319 962.043 415.334 962.087C415.349 962.131 415.374 962.171 415.406 962.204C415.438 962.237 415.477 962.263 415.52 962.28L424.22 965.57C424.27 965.59 424.314 965.622 424.348 965.664C424.382 965.705 424.405 965.755 424.415 965.808C424.425 965.86 424.422 965.915 424.405 965.966C424.388 966.017 424.359 966.063 424.32 966.1L403.55 985.37C403.507 985.412 403.452 985.44 403.394 985.452C403.335 985.465 403.274 985.46 403.217 985.439C403.161 985.418 403.112 985.382 403.075 985.334C403.038 985.287 403.016 985.23 403.01 985.17L400.05 956.97C400.042 956.914 400.049 956.857 400.07 956.805C400.092 956.752 400.127 956.707 400.171 956.672C400.216 956.638 400.269 956.616 400.325 956.608C400.381 956.601 400.438 956.608 400.49 956.63L409.24 959.93C409.311 959.957 409.389 959.957 409.461 959.932C409.532 959.906 409.592 959.856 409.63 959.79Z" fill="white"/>
<path d="M237.496 1033V1010.6H243V1028.3H254.104V1033H237.496ZM258.246 1033V1010.6H263.75V1028.3H274.854V1033H258.246ZM288.243 1033.35C286.621 1033.35 285.107 1033.06 283.699 1032.49C282.291 1031.89 281.053 1031.07 279.987 1030.02C278.941 1028.96 278.12 1027.73 277.523 1026.34C276.947 1024.94 276.659 1023.42 276.659 1021.8C276.659 1020.18 276.947 1018.67 277.523 1017.29C278.12 1015.88 278.941 1014.65 279.987 1013.61C281.053 1012.54 282.291 1011.72 283.699 1011.14C285.107 1010.55 286.621 1010.25 288.243 1010.25C289.864 1010.25 291.379 1010.55 292.787 1011.14C294.195 1011.72 295.421 1012.54 296.467 1013.61C297.533 1014.65 298.355 1015.88 298.931 1017.29C299.528 1018.67 299.827 1020.18 299.827 1021.8C299.827 1023.42 299.528 1024.94 298.931 1026.34C298.355 1027.73 297.533 1028.96 296.467 1030.02C295.421 1031.07 294.195 1031.89 292.787 1032.49C291.379 1033.06 289.864 1033.35 288.243 1033.35ZM288.243 1028.46C289.075 1028.46 289.853 1028.3 290.579 1027.98C291.304 1027.63 291.933 1027.17 292.467 1026.57C293 1025.95 293.416 1025.25 293.715 1024.46C294.013 1023.65 294.163 1022.76 294.163 1021.8C294.163 1020.84 294.013 1019.97 293.715 1019.18C293.416 1018.37 293 1017.66 292.467 1017.06C291.933 1016.45 291.304 1015.98 290.579 1015.66C289.853 1015.31 289.075 1015.14 288.243 1015.14C287.411 1015.14 286.632 1015.31 285.907 1015.66C285.181 1015.98 284.552 1016.45 284.019 1017.06C283.485 1017.66 283.069 1018.37 282.771 1019.18C282.472 1019.97 282.323 1020.84 282.323 1021.8C282.323 1022.76 282.472 1023.65 282.771 1024.46C283.069 1025.25 283.485 1025.95 284.019 1026.57C284.552 1027.17 285.181 1027.63 285.907 1027.98C286.632 1028.3 287.411 1028.46 288.243 1028.46ZM308.431 1033V1024.52L299.343 1010.6H305.679L311.343 1019.78L317.071 1010.6H323.055L313.935 1024.49V1033H308.431ZM331.031 1028.3H334.647C335.693 1028.3 336.631 1028.01 337.463 1027.43C338.295 1026.86 338.957 1026.08 339.447 1025.1C339.959 1024.09 340.215 1022.99 340.215 1021.8C340.215 1020.58 339.959 1019.49 339.447 1018.5C338.957 1017.52 338.295 1016.74 337.463 1016.17C336.631 1015.59 335.693 1015.3 334.647 1015.3H331.031V1028.3ZM325.527 1033V1010.6H334.647C336.226 1010.6 337.687 1010.89 339.031 1011.46C340.397 1012.04 341.591 1012.84 342.615 1013.86C343.661 1014.89 344.471 1016.08 345.047 1017.45C345.623 1018.79 345.911 1020.24 345.911 1021.8C345.911 1023.36 345.623 1024.82 345.047 1026.18C344.471 1027.53 343.661 1028.71 342.615 1029.74C341.591 1030.76 340.397 1031.56 339.031 1032.14C337.687 1032.71 336.226 1033 334.647 1033H325.527ZM356.715 1033V1010.6H362.219V1020.33L370.571 1010.6H377.131L367.339 1021.13L377.707 1033H370.507L362.219 1022.82V1033H356.715ZM378.533 1033L387.269 1010.6H393.541L402.149 1033H396.197L394.341 1027.66H386.149L384.261 1033H378.533ZM387.653 1023.4H392.869L390.277 1015.98L387.653 1023.4ZM404.395 1033V1010.6H409.899V1019.3H418.955V1010.6H424.459V1033H418.955V1024.14H409.899V1033H404.395ZM429.121 1033V1010.6H434.305L444.257 1024.17L444.161 1010.6H449.345V1033H444.481L434.209 1018.98L434.305 1033H429.121ZM473.06 1020.84C473.06 1018.56 473.348 1016.47 473.924 1014.57C474.5 1012.67 475.268 1010.96 476.228 1009.45C477.188 1007.93 478.233 1006.61 479.364 1005.48L482.404 1006.82C481.337 1007.95 480.366 1009.22 479.492 1010.63C478.638 1012.02 477.956 1013.55 477.444 1015.24C476.932 1016.93 476.676 1018.79 476.676 1020.84C476.676 1022.87 476.932 1024.73 477.444 1026.44C477.956 1028.13 478.638 1029.66 479.492 1031.05C480.366 1032.43 481.337 1033.7 482.404 1034.86L479.364 1036.2C478.233 1035.07 477.188 1033.75 476.228 1032.23C475.268 1030.72 474.5 1029.01 473.924 1027.11C473.348 1025.21 473.06 1023.12 473.06 1020.84ZM489.284 1033V1015.72L484.868 1017.54V1013.19L491.108 1010.6H494.212V1033H489.284ZM505.596 1010.25C507.559 1010.25 509.276 1010.72 510.748 1011.66C512.242 1012.59 513.394 1013.91 514.204 1015.59C515.036 1017.26 515.452 1019.21 515.452 1021.45C515.452 1023.82 514.994 1025.9 514.076 1027.69C513.18 1029.48 511.911 1030.88 510.268 1031.88C508.647 1032.86 506.748 1033.35 504.572 1033.35C503.335 1033.35 502.087 1033.13 500.828 1032.68C499.57 1032.23 498.546 1031.65 497.756 1030.92L500.604 1027.4C501.223 1027.93 501.874 1028.33 502.556 1028.58C503.26 1028.82 504.06 1028.94 504.956 1028.94C506.172 1028.94 507.196 1028.64 508.028 1028.04C508.86 1027.44 509.49 1026.58 509.916 1025.45C510.343 1024.3 510.556 1022.91 510.556 1021.29C509.852 1022.29 508.999 1023.07 507.996 1023.62C507.015 1024.18 505.959 1024.46 504.828 1024.46C503.356 1024.46 502.055 1024.17 500.924 1023.59C499.794 1023.02 498.908 1022.22 498.268 1021.19C497.628 1020.17 497.308 1018.99 497.308 1017.67C497.308 1016.24 497.66 1014.97 498.364 1013.86C499.09 1012.75 500.082 1011.88 501.34 1011.24C502.599 1010.58 504.018 1010.25 505.596 1010.25ZM505.66 1020.62C506.578 1020.62 507.42 1020.45 508.188 1020.1C508.978 1019.76 509.671 1019.28 510.268 1018.66C510.055 1017.81 509.735 1017.07 509.308 1016.46C508.903 1015.82 508.402 1015.33 507.804 1014.98C507.228 1014.64 506.578 1014.47 505.852 1014.47C505.148 1014.47 504.508 1014.61 503.932 1014.89C503.378 1015.14 502.94 1015.51 502.62 1015.98C502.3 1016.45 502.14 1016.98 502.14 1017.58C502.14 1018.17 502.29 1018.71 502.588 1019.18C502.887 1019.62 503.303 1019.98 503.836 1020.23C504.37 1020.49 504.978 1020.62 505.66 1020.62ZM528.232 1033.35C526.269 1033.35 524.541 1032.88 523.048 1031.94C521.576 1031.01 520.424 1029.7 519.592 1028.04C518.781 1026.35 518.376 1024.39 518.376 1022.15C518.376 1019.76 518.824 1017.68 519.72 1015.91C520.637 1014.12 521.907 1012.73 523.528 1011.75C525.171 1010.75 527.08 1010.25 529.256 1010.25C530.515 1010.25 531.763 1010.47 533 1010.92C534.259 1011.35 535.283 1011.93 536.072 1012.68L533.224 1016.2C532.605 1015.67 531.944 1015.28 531.24 1015.05C530.557 1014.79 529.768 1014.66 528.872 1014.66C527.656 1014.66 526.632 1014.96 525.8 1015.56C524.968 1016.16 524.339 1017.02 523.912 1018.15C523.485 1019.28 523.272 1020.67 523.272 1022.31C523.976 1021.31 524.829 1020.53 525.832 1019.98C526.835 1019.42 527.891 1019.14 529 1019.14C530.472 1019.14 531.773 1019.43 532.904 1020.01C534.035 1020.58 534.92 1021.38 535.56 1022.41C536.2 1023.43 536.52 1024.61 536.52 1025.93C536.52 1027.34 536.157 1028.61 535.432 1029.74C534.728 1030.85 533.747 1031.73 532.488 1032.39C531.251 1033.03 529.832 1033.35 528.232 1033.35ZM528.168 1022.98C527.251 1022.98 526.397 1023.15 525.608 1023.5C524.84 1023.84 524.157 1024.32 523.56 1024.94C523.773 1025.79 524.083 1026.54 524.488 1027.18C524.915 1027.79 525.427 1028.27 526.024 1028.62C526.621 1028.96 527.272 1029.13 527.976 1029.13C528.68 1029.13 529.309 1029 529.864 1028.74C530.419 1028.47 530.856 1028.09 531.176 1027.62C531.517 1027.15 531.688 1026.62 531.688 1026.02C531.688 1025.43 531.539 1024.9 531.24 1024.46C530.941 1023.99 530.525 1023.62 529.992 1023.37C529.48 1023.11 528.872 1022.98 528.168 1022.98ZM546.471 1010.25C548.434 1010.25 550.151 1010.72 551.623 1011.66C553.117 1012.59 554.269 1013.91 555.079 1015.59C555.911 1017.26 556.327 1019.21 556.327 1021.45C556.327 1023.82 555.869 1025.9 554.951 1027.69C554.055 1029.48 552.786 1030.88 551.143 1031.88C549.522 1032.86 547.623 1033.35 545.447 1033.35C544.21 1033.35 542.962 1033.13 541.703 1032.68C540.445 1032.23 539.421 1031.65 538.631 1030.92L541.479 1027.4C542.098 1027.93 542.749 1028.33 543.431 1028.58C544.135 1028.82 544.935 1028.94 545.831 1028.94C547.047 1028.94 548.071 1028.64 548.903 1028.04C549.735 1027.44 550.365 1026.58 550.791 1025.45C551.218 1024.3 551.431 1022.91 551.431 1021.29C550.727 1022.29 549.874 1023.07 548.871 1023.62C547.89 1024.18 546.834 1024.46 545.703 1024.46C544.231 1024.46 542.93 1024.17 541.799 1023.59C540.669 1023.02 539.783 1022.22 539.143 1021.19C538.503 1020.17 538.183 1018.99 538.183 1017.67C538.183 1016.24 538.535 1014.97 539.239 1013.86C539.965 1012.75 540.957 1011.88 542.215 1011.24C543.474 1010.58 544.893 1010.25 546.471 1010.25ZM546.535 1020.62C547.453 1020.62 548.295 1020.45 549.063 1020.1C549.853 1019.76 550.546 1019.28 551.143 1018.66C550.93 1017.81 550.61 1017.07 550.183 1016.46C549.778 1015.82 549.277 1015.33 548.679 1014.98C548.103 1014.64 547.453 1014.47 546.727 1014.47C546.023 1014.47 545.383 1014.61 544.807 1014.89C544.253 1015.14 543.815 1015.51 543.495 1015.98C543.175 1016.45 543.015 1016.98 543.015 1017.58C543.015 1018.17 543.165 1018.71 543.463 1019.18C543.762 1019.62 544.178 1019.98 544.711 1020.23C545.245 1020.49 545.853 1020.62 546.535 1020.62ZM568.659 1020.84C568.659 1023.12 568.371 1025.21 567.795 1027.11C567.219 1029.01 566.451 1030.72 565.491 1032.23C564.552 1033.75 563.507 1035.07 562.355 1036.2L559.315 1034.86C560.382 1033.7 561.342 1032.43 562.195 1031.05C563.07 1029.66 563.763 1028.13 564.275 1026.44C564.787 1024.73 565.043 1022.87 565.043 1020.84C565.043 1018.79 564.787 1016.93 564.275 1015.24C563.763 1013.55 563.07 1012.02 562.195 1010.63C561.342 1009.22 560.382 1007.95 559.315 1006.82L562.355 1005.48C563.507 1006.61 564.552 1007.93 565.491 1009.45C566.451 1010.96 567.219 1012.67 567.795 1014.57C568.371 1016.47 568.659 1018.56 568.659 1020.84Z" fill="white"/>
<path d="M1372.24 967.76L1356.44 991.26C1356.41 991.307 1356.37 991.346 1356.32 991.372C1356.27 991.399 1356.22 991.412 1356.16 991.411C1356.11 991.41 1356.05 991.395 1356 991.367C1355.96 991.338 1355.92 991.298 1355.89 991.25L1351.26 983.23C1351.24 983.191 1351.21 983.158 1351.17 983.132C1351.13 983.106 1351.09 983.088 1351.05 983.079C1351 983.071 1350.96 983.072 1350.91 983.082C1350.87 983.093 1350.83 983.112 1350.79 983.14L1347.44 985.77C1347.41 985.796 1347.37 985.816 1347.33 985.828C1347.29 985.839 1347.25 985.843 1347.2 985.838C1347.16 985.834 1347.12 985.821 1347.09 985.801C1347.05 985.78 1347.02 985.753 1346.99 985.72L1343.69 981.52C1343.66 981.487 1343.64 981.45 1343.63 981.409C1343.62 981.369 1343.62 981.326 1343.62 981.285C1343.63 981.243 1343.64 981.202 1343.66 981.166C1343.68 981.129 1343.71 981.096 1343.74 981.07L1347.94 977.75C1348 977.703 1348.04 977.635 1348.06 977.56C1348.07 977.485 1348.06 977.407 1348.02 977.34L1343.33 969.21C1343.3 969.163 1343.29 969.109 1343.29 969.054C1343.29 968.999 1343.3 968.945 1343.33 968.897C1343.35 968.849 1343.39 968.808 1343.44 968.779C1343.48 968.75 1343.54 968.733 1343.59 968.73L1371.96 967.26C1372.02 967.257 1372.08 967.271 1372.13 967.3C1372.18 967.329 1372.23 967.371 1372.25 967.423C1372.28 967.475 1372.3 967.534 1372.3 967.594C1372.29 967.653 1372.27 967.711 1372.24 967.76Z" fill="white"/>
<path d="M1338.37 993.433L1334.57 990.146C1334.37 989.969 1334.06 989.991 1333.88 990.196L1326.64 998.556C1326.46 998.76 1326.49 999.07 1326.69 999.247L1330.49 1002.53C1330.69 1002.71 1331 1002.69 1331.18 1002.48L1338.42 994.124C1338.6 993.92 1338.57 993.61 1338.37 993.433Z" fill="white"/>
<path d="M1325.04 1006.47L1323.6 1010.96C1323.54 1011.15 1323.54 1011.35 1323.6 1011.54C1323.66 1011.72 1323.77 1011.89 1323.93 1012.01C1323.94 1012.02 1323.95 1012.02 1323.96 1012.03C1324.07 1012.13 1324.15 1012.27 1324.18 1012.42C1324.21 1012.57 1324.18 1012.73 1324.11 1012.86L1319.11 1022.42C1319.08 1022.48 1319.04 1022.53 1318.99 1022.57C1318.94 1022.61 1318.89 1022.64 1318.82 1022.66C1318.76 1022.67 1318.7 1022.68 1318.63 1022.67C1318.57 1022.66 1318.51 1022.64 1318.45 1022.61L1313.99 1020.03C1313.92 1019.99 1313.86 1019.92 1313.84 1019.84C1313.81 1019.77 1313.82 1019.68 1313.86 1019.61L1318.34 1010.83C1318.38 1010.76 1318.4 1010.68 1318.39 1010.59C1318.39 1010.51 1318.36 1010.43 1318.32 1010.36C1318.27 1010.29 1318.21 1010.23 1318.14 1010.19C1318.07 1010.15 1317.98 1010.13 1317.9 1010.13H1312.84C1312.73 1010.13 1312.63 1010.09 1312.55 1010.01C1312.47 1009.93 1312.43 1009.83 1312.43 1009.72V1004.3C1312.43 1004.23 1312.46 1004.15 1312.51 1004.1C1312.56 1004.05 1312.64 1004.02 1312.71 1004.02C1316.55 1003.99 1320.52 1004.54 1324.63 1005.69C1324.71 1005.71 1324.78 1005.75 1324.85 1005.8C1324.91 1005.86 1324.96 1005.92 1325 1005.99C1325.04 1006.07 1325.06 1006.15 1325.07 1006.23C1325.08 1006.31 1325.07 1006.39 1325.04 1006.47Z" fill="white"/>
<path d="M1298.75 1005.74L1288.74 1009.46C1288.37 1009.6 1288.18 1010.01 1288.32 1010.39L1289.9 1014.66C1290.04 1015.03 1290.46 1015.22 1290.83 1015.08L1300.84 1011.36C1301.21 1011.22 1301.4 1010.81 1301.26 1010.43L1299.68 1006.16C1299.54 1005.79 1299.12 1005.6 1298.75 1005.74Z" fill="white"/>
<path d="M1344.8 1020.58C1344.95 1020.75 1345.02 1020.97 1345 1021.19C1344.99 1021.41 1344.89 1021.62 1344.72 1021.77L1343.53 1022.81C1343.17 1023.12 1342.8 1023.41 1342.43 1023.65C1342.06 1023.89 1341.71 1024.09 1341.39 1024.22C1341.06 1024.36 1340.78 1024.44 1340.55 1024.45C1340.32 1024.46 1340.15 1024.41 1340.05 1024.29L1333.45 1016.73C1333.25 1016.49 1333.34 1016.02 1333.71 1015.41C1334.07 1014.8 1334.68 1014.11 1335.4 1013.48L1336.58 1012.45C1336.66 1012.38 1336.76 1012.32 1336.87 1012.28C1336.97 1012.25 1337.09 1012.23 1337.2 1012.24C1337.31 1012.25 1337.42 1012.28 1337.52 1012.33C1337.62 1012.38 1337.71 1012.45 1337.78 1012.53L1344.8 1020.58Z" fill="white"/>
<path d="M1276.52 1017L1268.39 1024.44C1268.18 1024.63 1268.16 1024.96 1268.36 1025.18L1271.71 1028.83C1271.9 1029.04 1272.23 1029.06 1272.44 1028.86L1280.57 1021.42C1280.78 1021.23 1280.8 1020.9 1280.6 1020.68L1277.25 1017.03C1277.06 1016.82 1276.73 1016.8 1276.52 1017Z" fill="white"/>
<path d="M1309.21 1033.04C1309.22 1032.96 1309.24 1032.88 1309.28 1032.81C1309.32 1032.74 1309.38 1032.67 1309.44 1032.62C1309.5 1032.57 1309.58 1032.53 1309.66 1032.51C1309.74 1032.49 1309.82 1032.48 1309.9 1032.49L1312.13 1032.76C1312.96 1032.86 1313.74 1033.05 1314.3 1033.28C1314.87 1033.52 1315.17 1033.79 1315.14 1034.03L1313.92 1044.39C1313.91 1044.51 1313.81 1044.62 1313.64 1044.71C1313.48 1044.8 1313.23 1044.87 1312.94 1044.92C1312.64 1044.97 1312.29 1045 1311.9 1045C1311.52 1045 1311.11 1044.98 1310.7 1044.93L1308.47 1044.67C1308.31 1044.65 1308.16 1044.57 1308.06 1044.44C1307.96 1044.31 1307.91 1044.14 1307.93 1043.98L1309.21 1033.04Z" fill="white"/>
<path d="M1351.79 1045.65C1351.81 1045.84 1351.76 1046.02 1351.64 1046.17C1351.52 1046.31 1351.36 1046.41 1351.17 1046.43L1349.68 1046.6C1348.68 1046.71 1347.71 1046.71 1346.98 1046.58C1346.25 1046.45 1345.82 1046.21 1345.78 1045.92L1344.63 1035.82C1344.6 1035.52 1344.96 1035.2 1345.65 1034.91C1346.33 1034.62 1347.27 1034.39 1348.27 1034.28L1349.76 1034.11C1349.85 1034.1 1349.95 1034.11 1350.04 1034.13C1350.13 1034.16 1350.21 1034.2 1350.29 1034.26C1350.36 1034.32 1350.42 1034.39 1350.47 1034.47C1350.51 1034.56 1350.54 1034.65 1350.55 1034.74L1351.79 1045.65Z" fill="white"/>
<path d="M1265.24 1038.75L1261.56 1045.11C1261.48 1045.25 1261.45 1045.42 1261.48 1045.58C1261.51 1045.74 1261.6 1045.89 1261.73 1045.99C1264.79 1048.44 1266.42 1051.15 1266.63 1054.14C1267.18 1062.18 1259.89 1068.26 1252.14 1065.6C1240.87 1061.72 1243 1045.72 1254.89 1044.28C1254.98 1044.27 1255.07 1044.23 1255.15 1044.18C1255.23 1044.13 1255.3 1044.05 1255.35 1043.97L1260.22 1035.54C1260.25 1035.48 1260.3 1035.44 1260.35 1035.4C1260.4 1035.36 1260.46 1035.33 1260.52 1035.32C1260.58 1035.3 1260.64 1035.3 1260.71 1035.31C1260.77 1035.32 1260.83 1035.34 1260.88 1035.38L1265.12 1038.23C1265.2 1038.29 1265.26 1038.37 1265.28 1038.47C1265.3 1038.57 1265.29 1038.67 1265.24 1038.75Z" fill="white"/>
<path d="M1319.92 1058.66C1320.92 1059.48 1322.18 1060.22 1323.69 1060.87C1323.84 1060.93 1323.96 1061.05 1324.02 1061.2C1324.09 1061.35 1324.09 1061.52 1324.04 1061.67L1322.42 1066.24C1322.4 1066.31 1322.36 1066.37 1322.31 1066.42C1322.26 1066.47 1322.2 1066.52 1322.14 1066.55C1322.07 1066.58 1322 1066.59 1321.93 1066.6C1321.86 1066.6 1321.79 1066.59 1321.72 1066.56C1319.62 1065.75 1317.74 1064.67 1316.09 1063.31C1314.44 1061.95 1313.02 1060.32 1311.82 1058.41C1311.78 1058.35 1311.76 1058.28 1311.74 1058.21C1311.73 1058.14 1311.74 1058.07 1311.75 1058C1311.77 1057.93 1311.8 1057.86 1311.84 1057.8C1311.88 1057.75 1311.94 1057.7 1312 1057.66L1316.17 1055.19C1316.31 1055.11 1316.48 1055.08 1316.64 1055.11C1316.8 1055.15 1316.94 1055.24 1317.03 1055.38C1317.96 1056.75 1318.92 1057.84 1319.92 1058.66Z" fill="white"/>
<path d="M1342.33 1064.63C1340.61 1065.9 1338.68 1066.88 1336.55 1067.57C1336.48 1067.59 1336.41 1067.6 1336.34 1067.6C1336.26 1067.59 1336.19 1067.57 1336.13 1067.54C1336.06 1067.5 1336.01 1067.46 1335.96 1067.4C1335.91 1067.34 1335.88 1067.28 1335.86 1067.21L1334.49 1062.57C1334.44 1062.41 1334.46 1062.25 1334.53 1062.1C1334.6 1061.95 1334.73 1061.84 1334.88 1061.79C1336.43 1061.22 1337.72 1060.55 1338.76 1059.78C1339.8 1059.01 1340.82 1057.98 1341.82 1056.67C1341.92 1056.54 1342.06 1056.46 1342.22 1056.43C1342.38 1056.4 1342.54 1056.44 1342.68 1056.53L1346.71 1059.21C1346.77 1059.25 1346.82 1059.3 1346.86 1059.36C1346.9 1059.42 1346.93 1059.49 1346.94 1059.56C1346.95 1059.63 1346.95 1059.7 1346.94 1059.77C1346.92 1059.84 1346.89 1059.91 1346.85 1059.97C1345.56 1061.8 1344.05 1063.36 1342.33 1064.63Z" fill="white"/>
<path d="M1246.87 942V924.304H1239.67V919.6H1259.58V924.304H1252.38V942H1246.87ZM1262.27 942V919.216L1267.45 918.416V928.176C1268.09 927.216 1268.85 926.491 1269.72 926C1270.62 925.488 1271.6 925.232 1272.67 925.232C1273.73 925.232 1274.67 925.477 1275.48 925.968C1276.31 926.437 1276.96 927.099 1277.43 927.952C1277.9 928.784 1278.14 929.755 1278.14 930.864V942H1272.95V932.368C1272.95 931.429 1272.7 930.683 1272.19 930.128C1271.7 929.573 1271.03 929.296 1270.2 929.296C1269.65 929.296 1269.14 929.413 1268.67 929.648C1268.22 929.861 1267.81 930.203 1267.45 930.672V942H1262.27ZM1290.02 942.32C1288.39 942.32 1286.92 941.947 1285.6 941.2C1284.3 940.432 1283.25 939.408 1282.46 938.128C1281.7 936.827 1281.31 935.376 1281.31 933.776C1281.31 932.155 1281.67 930.704 1282.4 929.424C1283.12 928.144 1284.12 927.131 1285.38 926.384C1286.63 925.616 1288.05 925.232 1289.63 925.232C1291.23 925.232 1292.64 925.605 1293.86 926.352C1295.07 927.099 1296.02 928.133 1296.7 929.456C1297.41 930.757 1297.76 932.261 1297.76 933.968V935.088H1286.4C1286.57 935.707 1286.84 936.251 1287.2 936.72C1287.56 937.189 1288.01 937.552 1288.54 937.808C1289.08 938.064 1289.65 938.192 1290.27 938.192C1290.95 938.192 1291.57 938.075 1292.13 937.84C1292.7 937.605 1293.17 937.264 1293.54 936.816L1296.96 939.664C1295.89 940.603 1294.82 941.285 1293.73 941.712C1292.64 942.117 1291.4 942.32 1290.02 942.32ZM1286.4 932.144H1292.96C1292.81 931.547 1292.58 931.035 1292.26 930.608C1291.94 930.181 1291.55 929.851 1291.1 929.616C1290.66 929.381 1290.15 929.264 1289.6 929.264C1289.07 929.264 1288.58 929.381 1288.13 929.616C1287.7 929.829 1287.34 930.149 1287.04 930.576C1286.76 931.003 1286.55 931.525 1286.4 932.144ZM1311.8 942L1306.8 919.6H1312.47L1315.19 933.488L1319.09 919.6H1324.24L1328.15 933.488L1330.87 919.6H1336.34L1331.35 942H1325.52L1321.59 927.568L1317.62 942H1311.8ZM1339.33 942V919.216L1344.51 918.416V928.176C1345.15 927.216 1345.91 926.491 1346.78 926C1347.68 925.488 1348.66 925.232 1349.73 925.232C1350.8 925.232 1351.73 925.477 1352.54 925.968C1353.38 926.437 1354.03 927.099 1354.5 927.952C1354.97 928.784 1355.2 929.755 1355.2 930.864V942H1350.02V932.368C1350.02 931.429 1349.76 930.683 1349.25 930.128C1348.76 929.573 1348.1 929.296 1347.26 929.296C1346.71 929.296 1346.2 929.413 1345.73 929.648C1345.28 929.861 1344.88 930.203 1344.51 930.672V942H1339.33ZM1367.01 942.32C1365.37 942.32 1363.9 941.947 1362.6 941.2C1361.3 940.453 1360.26 939.44 1359.49 938.16C1358.75 936.859 1358.37 935.397 1358.37 933.776C1358.37 932.155 1358.75 930.704 1359.49 929.424C1360.26 928.123 1361.3 927.099 1362.6 926.352C1363.9 925.605 1365.36 925.232 1366.98 925.232C1368.62 925.232 1370.09 925.605 1371.37 926.352C1372.67 927.099 1373.69 928.123 1374.44 929.424C1375.21 930.704 1375.59 932.155 1375.59 933.776C1375.59 935.397 1375.21 936.859 1374.44 938.16C1373.69 939.44 1372.67 940.453 1371.37 941.2C1370.09 941.947 1368.64 942.32 1367.01 942.32ZM1366.98 938C1367.69 938 1368.3 937.819 1368.84 937.456C1369.37 937.093 1369.79 936.592 1370.09 935.952C1370.38 935.312 1370.53 934.587 1370.53 933.776C1370.53 932.944 1370.38 932.219 1370.09 931.6C1369.79 930.96 1369.37 930.459 1368.84 930.096C1368.3 929.733 1367.69 929.552 1366.98 929.552C1366.3 929.552 1365.68 929.733 1365.13 930.096C1364.59 930.459 1364.18 930.96 1363.88 931.6C1363.58 932.219 1363.43 932.944 1363.43 933.776C1363.43 934.587 1363.58 935.312 1363.88 935.952C1364.18 936.592 1364.59 937.093 1365.13 937.456C1365.68 937.819 1366.3 938 1366.98 938ZM1378.89 942V919.216L1384.08 918.416V942H1378.89ZM1396.08 942.32C1394.46 942.32 1392.98 941.947 1391.66 941.2C1390.36 940.432 1389.32 939.408 1388.53 938.128C1387.76 936.827 1387.37 935.376 1387.37 933.776C1387.37 932.155 1387.74 930.704 1388.46 929.424C1389.19 928.144 1390.18 927.131 1391.44 926.384C1392.7 925.616 1394.12 925.232 1395.69 925.232C1397.29 925.232 1398.7 925.605 1399.92 926.352C1401.13 927.099 1402.08 928.133 1402.77 929.456C1403.47 930.757 1403.82 932.261 1403.82 933.968V935.088H1392.46C1392.63 935.707 1392.9 936.251 1393.26 936.72C1393.62 937.189 1394.07 937.552 1394.61 937.808C1395.14 938.064 1395.72 938.192 1396.33 938.192C1397.02 938.192 1397.64 938.075 1398.19 937.84C1398.77 937.605 1399.24 937.264 1399.6 936.816L1403.02 939.664C1401.96 940.603 1400.88 941.285 1399.79 941.712C1398.7 942.117 1397.46 942.32 1396.08 942.32ZM1392.46 932.144H1399.02C1398.87 931.547 1398.64 931.035 1398.32 930.608C1398 930.181 1397.61 929.851 1397.17 929.616C1396.72 929.381 1396.22 929.264 1395.66 929.264C1395.13 929.264 1394.64 929.381 1394.19 929.616C1393.76 929.829 1393.4 930.149 1393.1 930.576C1392.82 931.003 1392.61 931.525 1392.46 932.144ZM1414.4 942V919.6H1431.33V924.208H1419.91V928.464H1427.97V932.944H1419.91V937.392H1431.46V942H1414.4ZM1440.23 942.256C1439.12 942.256 1438.12 942.043 1437.25 941.616C1436.4 941.189 1435.72 940.603 1435.23 939.856C1434.76 939.109 1434.53 938.245 1434.53 937.264C1434.53 936.24 1434.79 935.376 1435.3 934.672C1435.81 933.947 1436.55 933.403 1437.51 933.04C1438.47 932.656 1439.62 932.464 1440.96 932.464C1441.56 932.464 1442.17 932.528 1442.79 932.656C1443.4 932.763 1444.08 932.955 1444.8 933.232V931.888C1444.8 931.077 1444.53 930.48 1444 930.096C1443.47 929.691 1442.65 929.488 1441.54 929.488C1440.92 929.488 1440.23 929.584 1439.46 929.776C1438.71 929.947 1437.86 930.235 1436.9 930.64L1435.11 927.024C1437.77 925.829 1440.3 925.232 1442.69 925.232C1444.97 925.232 1446.74 925.776 1448 926.864C1449.28 927.952 1449.92 929.477 1449.92 931.44V942H1444.8V940.56C1444.08 941.157 1443.35 941.595 1442.63 941.872C1441.9 942.128 1441.1 942.256 1440.23 942.256ZM1439.3 937.168C1439.3 937.701 1439.52 938.117 1439.97 938.416C1440.42 938.693 1441.04 938.832 1441.83 938.832C1442.38 938.832 1442.9 938.768 1443.39 938.64C1443.88 938.491 1444.35 938.277 1444.8 938V935.888C1444.33 935.781 1443.86 935.696 1443.39 935.632C1442.92 935.568 1442.44 935.536 1441.95 935.536C1441.1 935.536 1440.44 935.675 1439.97 935.952C1439.52 936.229 1439.3 936.635 1439.3 937.168ZM1453.83 942V925.488H1459.01V929.232C1459.55 927.845 1460.18 926.821 1460.9 926.16C1461.65 925.499 1462.51 925.168 1463.49 925.168C1463.86 925.189 1464.15 925.221 1464.39 925.264C1464.62 925.307 1464.9 925.413 1465.22 925.584V930.032C1464.9 929.861 1464.53 929.733 1464.1 929.648C1463.67 929.563 1463.24 929.52 1462.79 929.52C1462.02 929.52 1461.31 929.712 1460.64 930.096C1459.98 930.459 1459.44 930.949 1459.01 931.568V942H1453.83ZM1476.08 942.32C1474.14 942.32 1472.67 941.872 1471.66 940.976C1470.66 940.08 1470.16 938.757 1470.16 937.008V929.488H1466.96V925.488H1470.16V920.912L1475.34 919.856V925.488H1479.76V929.488H1475.34V935.984C1475.34 936.709 1475.5 937.221 1475.82 937.52C1476.17 937.819 1476.73 937.968 1477.52 937.968C1477.82 937.968 1478.12 937.947 1478.42 937.904C1478.72 937.861 1479.12 937.765 1479.63 937.616V941.808C1479.16 941.957 1478.59 942.075 1477.9 942.16C1477.22 942.267 1476.61 942.32 1476.08 942.32ZM1482.64 942V919.216L1487.83 918.416V928.176C1488.47 927.216 1489.22 926.491 1490.1 926C1490.99 925.488 1491.97 925.232 1493.04 925.232C1494.11 925.232 1495.05 925.477 1495.86 925.968C1496.69 926.437 1497.34 927.099 1497.81 927.952C1498.28 928.784 1498.51 929.755 1498.51 930.864V942H1493.33V932.368C1493.33 931.429 1493.07 930.683 1492.56 930.128C1492.07 929.573 1491.41 929.296 1490.58 929.296C1490.02 929.296 1489.51 929.413 1489.04 929.648C1488.59 929.861 1488.19 930.203 1487.83 930.672V942H1482.64ZM1520.53 942.352C1518.87 942.352 1517.32 942.064 1515.89 941.488C1514.46 940.891 1513.2 940.069 1512.11 939.024C1511.05 937.979 1510.21 936.752 1509.62 935.344C1509.02 933.936 1508.72 932.421 1508.72 930.8C1508.72 929.157 1509.02 927.643 1509.62 926.256C1510.21 924.848 1511.05 923.621 1512.11 922.576C1513.2 921.531 1514.46 920.72 1515.89 920.144C1517.32 919.547 1518.87 919.248 1520.53 919.248C1521.72 919.248 1522.89 919.429 1524.02 919.792C1525.17 920.133 1526.23 920.635 1527.19 921.296C1528.17 921.936 1528.98 922.704 1529.62 923.6L1525.91 927.12C1525.18 926.117 1524.37 925.371 1523.47 924.88C1522.58 924.389 1521.6 924.144 1520.53 924.144C1519.65 924.144 1518.84 924.315 1518.1 924.656C1517.37 924.976 1516.73 925.445 1516.18 926.064C1515.62 926.661 1515.19 927.365 1514.87 928.176C1514.57 928.965 1514.42 929.84 1514.42 930.8C1514.42 931.76 1514.57 932.645 1514.87 933.456C1515.19 934.245 1515.62 934.949 1516.18 935.568C1516.73 936.165 1517.37 936.635 1518.1 936.976C1518.84 937.296 1519.65 937.456 1520.53 937.456C1521.6 937.456 1522.58 937.211 1523.47 936.72C1524.37 936.208 1525.18 935.461 1525.91 934.48L1529.62 938C1528.98 938.875 1528.17 939.643 1527.19 940.304C1526.23 940.965 1525.17 941.477 1524.02 941.84C1522.89 942.181 1521.72 942.352 1520.53 942.352ZM1537.26 942.256C1536.15 942.256 1535.16 942.043 1534.28 941.616C1533.43 941.189 1532.76 940.603 1532.26 939.856C1531.8 939.109 1531.56 938.245 1531.56 937.264C1531.56 936.24 1531.82 935.376 1532.33 934.672C1532.84 933.947 1533.58 933.403 1534.54 933.04C1535.5 932.656 1536.65 932.464 1537.99 932.464C1538.59 932.464 1539.2 932.528 1539.82 932.656C1540.44 932.763 1541.11 932.955 1541.83 933.232V931.888C1541.83 931.077 1541.57 930.48 1541.03 930.096C1540.5 929.691 1539.68 929.488 1538.57 929.488C1537.95 929.488 1537.26 929.584 1536.49 929.776C1535.74 929.947 1534.89 930.235 1533.93 930.64L1532.14 927.024C1534.8 925.829 1537.33 925.232 1539.72 925.232C1542 925.232 1543.77 925.776 1545.03 926.864C1546.31 927.952 1546.95 929.477 1546.95 931.44V942H1541.83V940.56C1541.11 941.157 1540.38 941.595 1539.66 941.872C1538.93 942.128 1538.13 942.256 1537.26 942.256ZM1536.33 937.168C1536.33 937.701 1536.55 938.117 1537 938.416C1537.45 938.693 1538.07 938.832 1538.86 938.832C1539.41 938.832 1539.93 938.768 1540.42 938.64C1540.92 938.491 1541.38 938.277 1541.83 938V935.888C1541.36 935.781 1540.89 935.696 1540.42 935.632C1539.96 935.568 1539.48 935.536 1538.98 935.536C1538.13 935.536 1537.47 935.675 1537 935.952C1536.55 936.229 1536.33 936.635 1536.33 937.168ZM1558.49 942.32C1556.55 942.32 1555.07 941.872 1554.07 940.976C1553.07 940.08 1552.57 938.757 1552.57 937.008V929.488H1549.37V925.488H1552.57V920.912L1557.75 919.856V925.488H1562.17V929.488H1557.75V935.984C1557.75 936.709 1557.91 937.221 1558.23 937.52C1558.57 937.819 1559.14 937.968 1559.93 937.968C1560.23 937.968 1560.52 937.947 1560.82 937.904C1561.12 937.861 1561.53 937.765 1562.04 937.616V941.808C1561.57 941.957 1560.99 942.075 1560.31 942.16C1559.63 942.267 1559.02 942.32 1558.49 942.32ZM1569.98 942.256C1568.87 942.256 1567.87 942.043 1567 941.616C1566.15 941.189 1565.47 940.603 1564.98 939.856C1564.51 939.109 1564.28 938.245 1564.28 937.264C1564.28 936.24 1564.54 935.376 1565.05 934.672C1565.56 933.947 1566.3 933.403 1567.26 933.04C1568.22 932.656 1569.37 932.464 1570.71 932.464C1571.31 932.464 1571.92 932.528 1572.54 932.656C1573.15 932.763 1573.83 932.955 1574.55 933.232V931.888C1574.55 931.077 1574.28 930.48 1573.75 930.096C1573.22 929.691 1572.4 929.488 1571.29 929.488C1570.67 929.488 1569.98 929.584 1569.21 929.776C1568.46 929.947 1567.61 930.235 1566.65 930.64L1564.86 927.024C1567.52 925.829 1570.05 925.232 1572.44 925.232C1574.72 925.232 1576.49 925.776 1577.75 926.864C1579.03 927.952 1579.67 929.477 1579.67 931.44V942H1574.55V940.56C1573.83 941.157 1573.1 941.595 1572.38 941.872C1571.65 942.128 1570.85 942.256 1569.98 942.256ZM1569.05 937.168C1569.05 937.701 1569.27 938.117 1569.72 938.416C1570.17 938.693 1570.79 938.832 1571.58 938.832C1572.13 938.832 1572.65 938.768 1573.14 938.64C1573.63 938.491 1574.1 938.277 1574.55 938V935.888C1574.08 935.781 1573.61 935.696 1573.14 935.632C1572.67 935.568 1572.19 935.536 1571.7 935.536C1570.85 935.536 1570.19 935.675 1569.72 935.952C1569.27 936.229 1569.05 936.635 1569.05 937.168ZM1583.58 942V919.216L1588.76 918.416V942H1583.58ZM1600.7 942.32C1599.06 942.32 1597.59 941.947 1596.29 941.2C1594.98 940.453 1593.95 939.44 1593.18 938.16C1592.43 936.859 1592.06 935.397 1592.06 933.776C1592.06 932.155 1592.43 930.704 1593.18 929.424C1593.95 928.123 1594.98 927.099 1596.29 926.352C1597.59 925.605 1599.05 925.232 1600.67 925.232C1602.31 925.232 1603.77 925.605 1605.05 926.352C1606.35 927.099 1607.38 928.123 1608.13 929.424C1608.89 930.704 1609.28 932.155 1609.28 933.776C1609.28 935.397 1608.89 936.859 1608.13 938.16C1607.38 939.44 1606.35 940.453 1605.05 941.2C1603.77 941.947 1602.32 942.32 1600.7 942.32ZM1600.67 938C1601.37 938 1601.99 937.819 1602.53 937.456C1603.06 937.093 1603.47 936.592 1603.77 935.952C1604.07 935.312 1604.22 934.587 1604.22 933.776C1604.22 932.944 1604.07 932.219 1603.77 931.6C1603.47 930.96 1603.06 930.459 1602.53 930.096C1601.99 929.733 1601.37 929.552 1600.67 929.552C1599.99 929.552 1599.37 929.733 1598.81 930.096C1598.28 930.459 1597.86 930.96 1597.57 931.6C1597.27 932.219 1597.12 932.944 1597.12 933.776C1597.12 934.587 1597.27 935.312 1597.57 935.952C1597.86 936.592 1598.28 937.093 1598.81 937.456C1599.37 937.819 1599.99 938 1600.67 938ZM1620.39 949.008C1619.15 949.008 1617.94 948.88 1616.77 948.624C1615.62 948.368 1614.54 948.005 1613.54 947.536L1615.14 943.792C1616.06 944.219 1616.93 944.539 1617.76 944.752C1618.59 944.965 1619.41 945.072 1620.19 945.072C1621.43 945.072 1622.36 944.816 1622.98 944.304C1623.62 943.792 1623.94 943.035 1623.94 942.032V939.792C1623.41 940.453 1622.71 940.987 1621.86 941.392C1621.01 941.776 1620.1 941.968 1619.14 941.968C1617.79 941.968 1616.57 941.595 1615.46 940.848C1614.35 940.101 1613.46 939.099 1612.8 937.84C1612.16 936.581 1611.84 935.184 1611.84 933.648C1611.84 932.112 1612.18 930.725 1612.87 929.488C1613.55 928.229 1614.47 927.237 1615.62 926.512C1616.79 925.765 1618.09 925.392 1619.52 925.392C1620.4 925.392 1621.22 925.573 1621.99 925.936C1622.78 926.277 1623.45 926.789 1624 927.472V925.488H1629.09V942.096C1629.09 944.315 1628.34 946.021 1626.85 947.216C1625.36 948.411 1623.2 949.008 1620.39 949.008ZM1620.87 937.744C1621.49 937.744 1622.05 937.637 1622.56 937.424C1623.07 937.189 1623.53 936.859 1623.94 936.432V930.928C1623.53 930.501 1623.06 930.181 1622.53 929.968C1622.02 929.755 1621.46 929.648 1620.87 929.648C1620.12 929.648 1619.45 929.829 1618.85 930.192C1618.25 930.533 1617.78 931.003 1617.44 931.6C1617.1 932.197 1616.93 932.891 1616.93 933.68C1616.93 934.448 1617.1 935.141 1617.44 935.76C1617.78 936.379 1618.25 936.869 1618.85 937.232C1619.45 937.573 1620.12 937.744 1620.87 937.744Z" fill="white"/>
</svg>
